<mxfile host="app.diagrams.net" modified="2022-02-14T20:34:21.794Z" agent="5.0 (Windows NT 10.0; Win64; x64) AppleWebKit/537.36 (KHTML, like Gecko) Chrome/97.0.4692.99 Safari/537.36 OPR/83.0.4254.46" etag="nM3cfepABEYgCVUQ8U1U" version="16.5.6" type="github">
  <diagram id="C5RBs43oDa-KdzZeNtuy" name="Page-1">
    <mxGraphModel dx="1381" dy="764" grid="1" gridSize="10" guides="1" tooltips="1" connect="1" arrows="1" fold="1" page="1" pageScale="1" pageWidth="827" pageHeight="1169" math="0" shadow="0">
      <root>
        <mxCell id="WIyWlLk6GJQsqaUBKTNV-0" />
        <mxCell id="WIyWlLk6GJQsqaUBKTNV-1" parent="WIyWlLk6GJQsqaUBKTNV-0" />
        <mxCell id="PZxyCN3TeEhjCaqw32ue-320" value="Start" style="strokeWidth=1;html=1;shape=mxgraph.flowchart.terminator;whiteSpace=wrap;rounded=1;" parent="WIyWlLk6GJQsqaUBKTNV-1" vertex="1">
          <mxGeometry x="330" y="20" width="60" height="30" as="geometry" />
        </mxCell>
        <mxCell id="PZxyCN3TeEhjCaqw32ue-435" style="edgeStyle=orthogonalEdgeStyle;rounded=0;orthogonalLoop=1;jettySize=auto;html=1;exitX=1;exitY=0.5;exitDx=0;exitDy=0;exitPerimeter=0;entryX=0;entryY=0.5;entryDx=0;entryDy=0;entryPerimeter=0;" parent="WIyWlLk6GJQsqaUBKTNV-1" source="PZxyCN3TeEhjCaqw32ue-330" target="PZxyCN3TeEhjCaqw32ue-434" edge="1">
          <mxGeometry relative="1" as="geometry" />
        </mxCell>
        <mxCell id="PZxyCN3TeEhjCaqw32ue-330" value="i &amp;lt;= grad" style="strokeWidth=1;html=1;shape=mxgraph.flowchart.decision;whiteSpace=wrap;rounded=1;strokeColor=default;" parent="WIyWlLk6GJQsqaUBKTNV-1" vertex="1">
          <mxGeometry x="325" y="140" width="70" height="70" as="geometry" />
        </mxCell>
        <mxCell id="PZxyCN3TeEhjCaqw32ue-331" value="n = 0" style="rounded=0;whiteSpace=wrap;html=1;absoluteArcSize=1;arcSize=14;strokeWidth=1;" parent="WIyWlLk6GJQsqaUBKTNV-1" vertex="1">
          <mxGeometry x="330" y="60" width="60" height="20" as="geometry" />
        </mxCell>
        <mxCell id="PZxyCN3TeEhjCaqw32ue-336" value="stepperBewegen()" style="shape=process;whiteSpace=wrap;html=1;backgroundOutline=1;rounded=0;strokeColor=default;strokeWidth=1;" parent="WIyWlLk6GJQsqaUBKTNV-1" vertex="1">
          <mxGeometry x="290" y="230" width="140" height="20" as="geometry" />
        </mxCell>
        <mxCell id="PZxyCN3TeEhjCaqw32ue-337" value="distanzMessen()" style="shape=process;whiteSpace=wrap;html=1;backgroundOutline=1;rounded=0;strokeColor=default;strokeWidth=1;" parent="WIyWlLk6GJQsqaUBKTNV-1" vertex="1">
          <mxGeometry x="290" y="260" width="140" height="20" as="geometry" />
        </mxCell>
        <mxCell id="PZxyCN3TeEhjCaqw32ue-338" value="n = n +1" style="rounded=0;whiteSpace=wrap;html=1;absoluteArcSize=1;arcSize=14;strokeWidth=1;" parent="WIyWlLk6GJQsqaUBKTNV-1" vertex="1">
          <mxGeometry x="330" y="290" width="60" height="20" as="geometry" />
        </mxCell>
        <mxCell id="PZxyCN3TeEhjCaqw32ue-351" style="edgeStyle=orthogonalEdgeStyle;rounded=0;orthogonalLoop=1;jettySize=auto;html=1;exitX=1;exitY=0.5;exitDx=0;exitDy=0;exitPerimeter=0;entryX=0.5;entryY=0;entryDx=0;entryDy=0;" parent="WIyWlLk6GJQsqaUBKTNV-1" source="PZxyCN3TeEhjCaqw32ue-339" target="PZxyCN3TeEhjCaqw32ue-350" edge="1">
          <mxGeometry relative="1" as="geometry">
            <mxPoint x="484.9999999999998" y="439.9999999999999" as="targetPoint" />
          </mxGeometry>
        </mxCell>
        <mxCell id="PZxyCN3TeEhjCaqw32ue-364" value="Nein" style="edgeLabel;html=1;align=center;verticalAlign=middle;resizable=0;points=[];" parent="PZxyCN3TeEhjCaqw32ue-351" vertex="1" connectable="0">
          <mxGeometry x="-0.8656" y="1" relative="1" as="geometry">
            <mxPoint y="16" as="offset" />
          </mxGeometry>
        </mxCell>
        <mxCell id="PZxyCN3TeEhjCaqw32ue-339" value="dist &amp;lt;= 20" style="strokeWidth=1;html=1;shape=mxgraph.flowchart.decision;whiteSpace=wrap;rounded=1;strokeColor=default;" parent="WIyWlLk6GJQsqaUBKTNV-1" vertex="1">
          <mxGeometry x="325" y="320" width="70" height="70" as="geometry" />
        </mxCell>
        <mxCell id="PZxyCN3TeEhjCaqw32ue-356" style="edgeStyle=orthogonalEdgeStyle;rounded=0;orthogonalLoop=1;jettySize=auto;html=1;exitX=0;exitY=0.5;exitDx=0;exitDy=0;exitPerimeter=0;entryX=0.5;entryY=0;entryDx=0;entryDy=0;" parent="WIyWlLk6GJQsqaUBKTNV-1" source="PZxyCN3TeEhjCaqw32ue-340" target="PZxyCN3TeEhjCaqw32ue-355" edge="1">
          <mxGeometry relative="1" as="geometry" />
        </mxCell>
        <mxCell id="PZxyCN3TeEhjCaqw32ue-361" value="Ja" style="edgeLabel;html=1;align=center;verticalAlign=middle;resizable=0;points=[];" parent="PZxyCN3TeEhjCaqw32ue-356" vertex="1" connectable="0">
          <mxGeometry x="-0.577" relative="1" as="geometry">
            <mxPoint x="20" y="15" as="offset" />
          </mxGeometry>
        </mxCell>
        <mxCell id="PZxyCN3TeEhjCaqw32ue-406" style="edgeStyle=orthogonalEdgeStyle;rounded=0;orthogonalLoop=1;jettySize=auto;html=1;exitX=1;exitY=0.5;exitDx=0;exitDy=0;exitPerimeter=0;entryX=0.5;entryY=0;entryDx=0;entryDy=0;" parent="WIyWlLk6GJQsqaUBKTNV-1" source="PZxyCN3TeEhjCaqw32ue-340" target="PZxyCN3TeEhjCaqw32ue-350" edge="1">
          <mxGeometry relative="1" as="geometry" />
        </mxCell>
        <mxCell id="PZxyCN3TeEhjCaqw32ue-407" value="Nein" style="edgeLabel;html=1;align=center;verticalAlign=middle;resizable=0;points=[];" parent="PZxyCN3TeEhjCaqw32ue-406" vertex="1" connectable="0">
          <mxGeometry x="-0.8857" relative="1" as="geometry">
            <mxPoint x="1" y="15" as="offset" />
          </mxGeometry>
        </mxCell>
        <mxCell id="PZxyCN3TeEhjCaqw32ue-340" value="dist &amp;gt; 0" style="strokeWidth=1;html=1;shape=mxgraph.flowchart.decision;whiteSpace=wrap;rounded=1;strokeColor=default;" parent="WIyWlLk6GJQsqaUBKTNV-1" vertex="1">
          <mxGeometry x="255" y="390" width="70" height="70" as="geometry" />
        </mxCell>
        <mxCell id="PZxyCN3TeEhjCaqw32ue-343" value="" style="endArrow=classic;html=1;rounded=0;entryX=0.5;entryY=0;entryDx=0;entryDy=0;entryPerimeter=0;exitX=0;exitY=0.5;exitDx=0;exitDy=0;exitPerimeter=0;" parent="WIyWlLk6GJQsqaUBKTNV-1" source="PZxyCN3TeEhjCaqw32ue-339" target="PZxyCN3TeEhjCaqw32ue-340" edge="1">
          <mxGeometry width="50" height="50" relative="1" as="geometry">
            <mxPoint x="320" y="350" as="sourcePoint" />
            <mxPoint x="300" y="330" as="targetPoint" />
            <Array as="points">
              <mxPoint x="290" y="355" />
            </Array>
          </mxGeometry>
        </mxCell>
        <mxCell id="PZxyCN3TeEhjCaqw32ue-363" value="Ja" style="edgeLabel;html=1;align=center;verticalAlign=middle;resizable=0;points=[];" parent="PZxyCN3TeEhjCaqw32ue-343" vertex="1" connectable="0">
          <mxGeometry x="-0.6966" relative="1" as="geometry">
            <mxPoint y="15" as="offset" />
          </mxGeometry>
        </mxCell>
        <mxCell id="PZxyCN3TeEhjCaqw32ue-344" value="" style="endArrow=classic;html=1;rounded=0;exitX=0.5;exitY=1;exitDx=0;exitDy=0;" parent="WIyWlLk6GJQsqaUBKTNV-1" source="PZxyCN3TeEhjCaqw32ue-338" edge="1">
          <mxGeometry width="50" height="50" relative="1" as="geometry">
            <mxPoint x="320" y="390" as="sourcePoint" />
            <mxPoint x="360" y="320" as="targetPoint" />
          </mxGeometry>
        </mxCell>
        <mxCell id="PZxyCN3TeEhjCaqw32ue-345" value="" style="endArrow=classic;html=1;rounded=0;entryX=0.5;entryY=0;entryDx=0;entryDy=0;exitX=0.5;exitY=1;exitDx=0;exitDy=0;" parent="WIyWlLk6GJQsqaUBKTNV-1" source="PZxyCN3TeEhjCaqw32ue-337" target="PZxyCN3TeEhjCaqw32ue-338" edge="1">
          <mxGeometry width="50" height="50" relative="1" as="geometry">
            <mxPoint x="320" y="310" as="sourcePoint" />
            <mxPoint x="370" y="260" as="targetPoint" />
          </mxGeometry>
        </mxCell>
        <mxCell id="PZxyCN3TeEhjCaqw32ue-346" value="" style="endArrow=classic;html=1;rounded=0;entryX=0.5;entryY=0;entryDx=0;entryDy=0;exitX=0.5;exitY=1;exitDx=0;exitDy=0;" parent="WIyWlLk6GJQsqaUBKTNV-1" source="PZxyCN3TeEhjCaqw32ue-336" target="PZxyCN3TeEhjCaqw32ue-337" edge="1">
          <mxGeometry width="50" height="50" relative="1" as="geometry">
            <mxPoint x="320" y="310" as="sourcePoint" />
            <mxPoint x="370" y="260" as="targetPoint" />
          </mxGeometry>
        </mxCell>
        <mxCell id="PZxyCN3TeEhjCaqw32ue-347" value="" style="endArrow=classic;html=1;rounded=0;entryX=0.5;entryY=0;entryDx=0;entryDy=0;exitX=0.5;exitY=1;exitDx=0;exitDy=0;exitPerimeter=0;" parent="WIyWlLk6GJQsqaUBKTNV-1" source="PZxyCN3TeEhjCaqw32ue-330" target="PZxyCN3TeEhjCaqw32ue-336" edge="1">
          <mxGeometry width="50" height="50" relative="1" as="geometry">
            <mxPoint x="320" y="300" as="sourcePoint" />
            <mxPoint x="370" y="250" as="targetPoint" />
            <Array as="points" />
          </mxGeometry>
        </mxCell>
        <mxCell id="PZxyCN3TeEhjCaqw32ue-365" value="Ja" style="edgeLabel;html=1;align=center;verticalAlign=middle;resizable=0;points=[];" parent="PZxyCN3TeEhjCaqw32ue-347" vertex="1" connectable="0">
          <mxGeometry x="-0.5846" relative="1" as="geometry">
            <mxPoint x="10" as="offset" />
          </mxGeometry>
        </mxCell>
        <mxCell id="PZxyCN3TeEhjCaqw32ue-348" value="" style="endArrow=classic;html=1;rounded=0;entryX=0.5;entryY=0;entryDx=0;entryDy=0;entryPerimeter=0;exitX=0.5;exitY=1;exitDx=0;exitDy=0;" parent="WIyWlLk6GJQsqaUBKTNV-1" source="PZxyCN3TeEhjCaqw32ue-331" target="PZxyCN3TeEhjCaqw32ue-330" edge="1">
          <mxGeometry width="50" height="50" relative="1" as="geometry">
            <mxPoint x="320" y="170" as="sourcePoint" />
            <mxPoint x="370" y="120" as="targetPoint" />
          </mxGeometry>
        </mxCell>
        <mxCell id="PZxyCN3TeEhjCaqw32ue-349" value="" style="endArrow=classic;html=1;rounded=0;entryX=0.5;entryY=0;entryDx=0;entryDy=0;exitX=0.5;exitY=1;exitDx=0;exitDy=0;exitPerimeter=0;" parent="WIyWlLk6GJQsqaUBKTNV-1" source="PZxyCN3TeEhjCaqw32ue-320" target="PZxyCN3TeEhjCaqw32ue-331" edge="1">
          <mxGeometry width="50" height="50" relative="1" as="geometry">
            <mxPoint x="320" y="170" as="sourcePoint" />
            <mxPoint x="370" y="120" as="targetPoint" />
          </mxGeometry>
        </mxCell>
        <mxCell id="PZxyCN3TeEhjCaqw32ue-350" value="displayDatenSchreiben()" style="shape=process;whiteSpace=wrap;html=1;backgroundOutline=1;rounded=0;strokeColor=default;strokeWidth=1;" parent="WIyWlLk6GJQsqaUBKTNV-1" vertex="1">
          <mxGeometry x="400" y="500" width="170" height="20" as="geometry" />
        </mxCell>
        <mxCell id="PZxyCN3TeEhjCaqw32ue-368" style="edgeStyle=orthogonalEdgeStyle;rounded=0;orthogonalLoop=1;jettySize=auto;html=1;exitX=0;exitY=0.5;exitDx=0;exitDy=0;exitPerimeter=0;entryX=0.5;entryY=0;entryDx=0;entryDy=0;entryPerimeter=0;" parent="WIyWlLk6GJQsqaUBKTNV-1" source="PZxyCN3TeEhjCaqw32ue-353" target="PZxyCN3TeEhjCaqw32ue-366" edge="1">
          <mxGeometry relative="1" as="geometry">
            <mxPoint x="450" y="570" as="sourcePoint" />
          </mxGeometry>
        </mxCell>
        <mxCell id="PZxyCN3TeEhjCaqw32ue-384" value="Ja" style="edgeLabel;html=1;align=center;verticalAlign=middle;resizable=0;points=[];" parent="PZxyCN3TeEhjCaqw32ue-368" vertex="1" connectable="0">
          <mxGeometry x="-0.7233" y="-2" relative="1" as="geometry">
            <mxPoint y="17" as="offset" />
          </mxGeometry>
        </mxCell>
        <mxCell id="PZxyCN3TeEhjCaqw32ue-382" style="edgeStyle=orthogonalEdgeStyle;rounded=0;orthogonalLoop=1;jettySize=auto;html=1;exitX=1;exitY=0.5;exitDx=0;exitDy=0;exitPerimeter=0;entryX=0.5;entryY=0;entryDx=0;entryDy=0;entryPerimeter=0;" parent="WIyWlLk6GJQsqaUBKTNV-1" source="PZxyCN3TeEhjCaqw32ue-353" target="PZxyCN3TeEhjCaqw32ue-376" edge="1">
          <mxGeometry relative="1" as="geometry">
            <mxPoint x="520" y="570" as="sourcePoint" />
            <Array as="points">
              <mxPoint x="680" y="565" />
              <mxPoint x="680" y="775" />
              <mxPoint x="415" y="775" />
            </Array>
          </mxGeometry>
        </mxCell>
        <mxCell id="PZxyCN3TeEhjCaqw32ue-383" value="Nein" style="edgeLabel;html=1;align=center;verticalAlign=middle;resizable=0;points=[];" parent="PZxyCN3TeEhjCaqw32ue-382" vertex="1" connectable="0">
          <mxGeometry x="-0.9209" relative="1" as="geometry">
            <mxPoint y="15" as="offset" />
          </mxGeometry>
        </mxCell>
        <mxCell id="PZxyCN3TeEhjCaqw32ue-353" value="n = 5" style="strokeWidth=1;html=1;shape=mxgraph.flowchart.decision;whiteSpace=wrap;rounded=1;strokeColor=default;" parent="WIyWlLk6GJQsqaUBKTNV-1" vertex="1">
          <mxGeometry x="450" y="530" width="70" height="70" as="geometry" />
        </mxCell>
        <mxCell id="PZxyCN3TeEhjCaqw32ue-354" value="" style="endArrow=classic;html=1;rounded=0;entryX=0.5;entryY=0;entryDx=0;entryDy=0;entryPerimeter=0;exitX=0.5;exitY=1;exitDx=0;exitDy=0;" parent="WIyWlLk6GJQsqaUBKTNV-1" source="PZxyCN3TeEhjCaqw32ue-350" target="PZxyCN3TeEhjCaqw32ue-353" edge="1">
          <mxGeometry width="50" height="50" relative="1" as="geometry">
            <mxPoint x="484.9999999999998" y="459.9999999999999" as="sourcePoint" />
            <mxPoint x="400" y="400" as="targetPoint" />
          </mxGeometry>
        </mxCell>
        <mxCell id="PZxyCN3TeEhjCaqw32ue-359" style="edgeStyle=orthogonalEdgeStyle;rounded=0;orthogonalLoop=1;jettySize=auto;html=1;exitX=0.5;exitY=1;exitDx=0;exitDy=0;entryX=0.5;entryY=0;entryDx=0;entryDy=0;" parent="WIyWlLk6GJQsqaUBKTNV-1" source="PZxyCN3TeEhjCaqw32ue-355" target="PZxyCN3TeEhjCaqw32ue-357" edge="1">
          <mxGeometry relative="1" as="geometry" />
        </mxCell>
        <mxCell id="PZxyCN3TeEhjCaqw32ue-355" value="anhalten()" style="shape=process;whiteSpace=wrap;html=1;backgroundOutline=1;rounded=0;strokeColor=default;strokeWidth=1;" parent="WIyWlLk6GJQsqaUBKTNV-1" vertex="1">
          <mxGeometry x="140" y="470" width="80" height="20" as="geometry" />
        </mxCell>
        <mxCell id="PZxyCN3TeEhjCaqw32ue-360" style="edgeStyle=orthogonalEdgeStyle;rounded=0;orthogonalLoop=1;jettySize=auto;html=1;exitX=0.5;exitY=1;exitDx=0;exitDy=0;entryX=0.5;entryY=0;entryDx=0;entryDy=0;" parent="WIyWlLk6GJQsqaUBKTNV-1" source="PZxyCN3TeEhjCaqw32ue-357" target="PZxyCN3TeEhjCaqw32ue-358" edge="1">
          <mxGeometry relative="1" as="geometry" />
        </mxCell>
        <mxCell id="PZxyCN3TeEhjCaqw32ue-357" value="kurz = true" style="rounded=0;whiteSpace=wrap;html=1;absoluteArcSize=1;arcSize=14;strokeWidth=1;" parent="WIyWlLk6GJQsqaUBKTNV-1" vertex="1">
          <mxGeometry x="140" y="500" width="80" height="20" as="geometry" />
        </mxCell>
        <mxCell id="PZxyCN3TeEhjCaqw32ue-405" style="edgeStyle=orthogonalEdgeStyle;rounded=0;orthogonalLoop=1;jettySize=auto;html=1;exitX=0.5;exitY=1;exitDx=0;exitDy=0;entryX=0.5;entryY=0;entryDx=0;entryDy=0;" parent="WIyWlLk6GJQsqaUBKTNV-1" source="PZxyCN3TeEhjCaqw32ue-358" target="PZxyCN3TeEhjCaqw32ue-350" edge="1">
          <mxGeometry relative="1" as="geometry" />
        </mxCell>
        <mxCell id="PZxyCN3TeEhjCaqw32ue-358" value="n = 0" style="rounded=0;whiteSpace=wrap;html=1;absoluteArcSize=1;arcSize=14;strokeWidth=1;" parent="WIyWlLk6GJQsqaUBKTNV-1" vertex="1">
          <mxGeometry x="150" y="530" width="60" height="20" as="geometry" />
        </mxCell>
        <mxCell id="PZxyCN3TeEhjCaqw32ue-371" style="edgeStyle=orthogonalEdgeStyle;rounded=0;orthogonalLoop=1;jettySize=auto;html=1;exitX=1;exitY=0.5;exitDx=0;exitDy=0;exitPerimeter=0;entryX=0.5;entryY=0;entryDx=0;entryDy=0;entryPerimeter=0;" parent="WIyWlLk6GJQsqaUBKTNV-1" source="PZxyCN3TeEhjCaqw32ue-366" target="PZxyCN3TeEhjCaqw32ue-369" edge="1">
          <mxGeometry relative="1" as="geometry">
            <Array as="points">
              <mxPoint x="605" y="650" />
            </Array>
          </mxGeometry>
        </mxCell>
        <mxCell id="PZxyCN3TeEhjCaqw32ue-374" style="edgeStyle=orthogonalEdgeStyle;rounded=0;orthogonalLoop=1;jettySize=auto;html=1;exitX=0;exitY=0.5;exitDx=0;exitDy=0;exitPerimeter=0;entryX=0.5;entryY=0;entryDx=0;entryDy=0;" parent="WIyWlLk6GJQsqaUBKTNV-1" source="PZxyCN3TeEhjCaqw32ue-366" target="PZxyCN3TeEhjCaqw32ue-372" edge="1">
          <mxGeometry relative="1" as="geometry" />
        </mxCell>
        <mxCell id="PZxyCN3TeEhjCaqw32ue-381" value="Ja" style="edgeLabel;html=1;align=center;verticalAlign=middle;resizable=0;points=[];" parent="PZxyCN3TeEhjCaqw32ue-374" vertex="1" connectable="0">
          <mxGeometry x="-0.8188" y="1" relative="1" as="geometry">
            <mxPoint x="2" y="14" as="offset" />
          </mxGeometry>
        </mxCell>
        <mxCell id="PZxyCN3TeEhjCaqw32ue-366" value="richtung = true" style="strokeWidth=1;html=1;shape=mxgraph.flowchart.decision;whiteSpace=wrap;rounded=1;strokeColor=default;" parent="WIyWlLk6GJQsqaUBKTNV-1" vertex="1">
          <mxGeometry x="380" y="615" width="70" height="70" as="geometry" />
        </mxCell>
        <mxCell id="PZxyCN3TeEhjCaqw32ue-375" style="edgeStyle=orthogonalEdgeStyle;rounded=0;orthogonalLoop=1;jettySize=auto;html=1;exitX=0;exitY=0.5;exitDx=0;exitDy=0;exitPerimeter=0;entryX=0.5;entryY=0;entryDx=0;entryDy=0;" parent="WIyWlLk6GJQsqaUBKTNV-1" source="PZxyCN3TeEhjCaqw32ue-369" target="PZxyCN3TeEhjCaqw32ue-373" edge="1">
          <mxGeometry relative="1" as="geometry" />
        </mxCell>
        <mxCell id="PZxyCN3TeEhjCaqw32ue-380" value="Ja" style="edgeLabel;html=1;align=center;verticalAlign=middle;resizable=0;points=[];" parent="PZxyCN3TeEhjCaqw32ue-375" vertex="1" connectable="0">
          <mxGeometry x="-0.4003" y="-1" relative="1" as="geometry">
            <mxPoint x="16" y="16" as="offset" />
          </mxGeometry>
        </mxCell>
        <mxCell id="PZxyCN3TeEhjCaqw32ue-385" style="edgeStyle=orthogonalEdgeStyle;rounded=0;orthogonalLoop=1;jettySize=auto;html=1;exitX=1;exitY=0.5;exitDx=0;exitDy=0;exitPerimeter=0;" parent="WIyWlLk6GJQsqaUBKTNV-1" source="PZxyCN3TeEhjCaqw32ue-369" target="PZxyCN3TeEhjCaqw32ue-376" edge="1">
          <mxGeometry relative="1" as="geometry">
            <Array as="points">
              <mxPoint x="670" y="700" />
              <mxPoint x="670" y="775" />
              <mxPoint x="415" y="775" />
            </Array>
          </mxGeometry>
        </mxCell>
        <mxCell id="PZxyCN3TeEhjCaqw32ue-386" value="Nein" style="edgeLabel;html=1;align=center;verticalAlign=middle;resizable=0;points=[];" parent="PZxyCN3TeEhjCaqw32ue-385" vertex="1" connectable="0">
          <mxGeometry x="-0.8892" relative="1" as="geometry">
            <mxPoint x="-10" y="15" as="offset" />
          </mxGeometry>
        </mxCell>
        <mxCell id="PZxyCN3TeEhjCaqw32ue-369" value="richtung = false" style="strokeWidth=1;html=1;shape=mxgraph.flowchart.decision;whiteSpace=wrap;rounded=1;strokeColor=default;" parent="WIyWlLk6GJQsqaUBKTNV-1" vertex="1">
          <mxGeometry x="570" y="665" width="70" height="70" as="geometry" />
        </mxCell>
        <mxCell id="PZxyCN3TeEhjCaqw32ue-378" style="edgeStyle=orthogonalEdgeStyle;rounded=0;orthogonalLoop=1;jettySize=auto;html=1;exitX=0.5;exitY=1;exitDx=0;exitDy=0;entryX=0.5;entryY=0;entryDx=0;entryDy=0;entryPerimeter=0;" parent="WIyWlLk6GJQsqaUBKTNV-1" source="PZxyCN3TeEhjCaqw32ue-372" target="PZxyCN3TeEhjCaqw32ue-376" edge="1">
          <mxGeometry relative="1" as="geometry">
            <Array as="points">
              <mxPoint x="340" y="775" />
              <mxPoint x="415" y="775" />
            </Array>
          </mxGeometry>
        </mxCell>
        <mxCell id="PZxyCN3TeEhjCaqw32ue-372" value="rd = dist" style="rounded=0;whiteSpace=wrap;html=1;absoluteArcSize=1;arcSize=14;strokeWidth=1;" parent="WIyWlLk6GJQsqaUBKTNV-1" vertex="1">
          <mxGeometry x="300" y="745" width="80" height="20" as="geometry" />
        </mxCell>
        <mxCell id="PZxyCN3TeEhjCaqw32ue-379" style="edgeStyle=orthogonalEdgeStyle;rounded=0;orthogonalLoop=1;jettySize=auto;html=1;exitX=0.5;exitY=1;exitDx=0;exitDy=0;" parent="WIyWlLk6GJQsqaUBKTNV-1" source="PZxyCN3TeEhjCaqw32ue-373" target="PZxyCN3TeEhjCaqw32ue-376" edge="1">
          <mxGeometry relative="1" as="geometry">
            <Array as="points">
              <mxPoint x="530" y="775" />
              <mxPoint x="415" y="775" />
            </Array>
          </mxGeometry>
        </mxCell>
        <mxCell id="PZxyCN3TeEhjCaqw32ue-373" value="ld = dist" style="rounded=0;whiteSpace=wrap;html=1;absoluteArcSize=1;arcSize=14;strokeWidth=1;" parent="WIyWlLk6GJQsqaUBKTNV-1" vertex="1">
          <mxGeometry x="490" y="745" width="80" height="20" as="geometry" />
        </mxCell>
        <mxCell id="PZxyCN3TeEhjCaqw32ue-388" style="edgeStyle=orthogonalEdgeStyle;rounded=0;orthogonalLoop=1;jettySize=auto;html=1;exitX=0;exitY=0.5;exitDx=0;exitDy=0;exitPerimeter=0;entryX=0.5;entryY=0;entryDx=0;entryDy=0;entryPerimeter=0;" parent="WIyWlLk6GJQsqaUBKTNV-1" source="PZxyCN3TeEhjCaqw32ue-376" target="PZxyCN3TeEhjCaqw32ue-387" edge="1">
          <mxGeometry relative="1" as="geometry" />
        </mxCell>
        <mxCell id="PZxyCN3TeEhjCaqw32ue-430" value="Ja" style="edgeLabel;html=1;align=center;verticalAlign=middle;resizable=0;points=[];" parent="PZxyCN3TeEhjCaqw32ue-388" vertex="1" connectable="0">
          <mxGeometry x="-0.4429" y="-1" relative="1" as="geometry">
            <mxPoint x="12" y="21" as="offset" />
          </mxGeometry>
        </mxCell>
        <mxCell id="PZxyCN3TeEhjCaqw32ue-418" style="edgeStyle=orthogonalEdgeStyle;rounded=0;orthogonalLoop=1;jettySize=auto;html=1;exitX=1;exitY=0.5;exitDx=0;exitDy=0;exitPerimeter=0;entryX=0.5;entryY=0;entryDx=0;entryDy=0;entryPerimeter=0;" parent="WIyWlLk6GJQsqaUBKTNV-1" source="PZxyCN3TeEhjCaqw32ue-376" target="PZxyCN3TeEhjCaqw32ue-389" edge="1">
          <mxGeometry relative="1" as="geometry">
            <Array as="points">
              <mxPoint x="500" y="820" />
              <mxPoint x="500" y="900" />
              <mxPoint x="435" y="900" />
            </Array>
          </mxGeometry>
        </mxCell>
        <mxCell id="PZxyCN3TeEhjCaqw32ue-431" value="Nein" style="edgeLabel;html=1;align=center;verticalAlign=middle;resizable=0;points=[];" parent="PZxyCN3TeEhjCaqw32ue-418" vertex="1" connectable="0">
          <mxGeometry x="-0.9084" relative="1" as="geometry">
            <mxPoint y="20" as="offset" />
          </mxGeometry>
        </mxCell>
        <mxCell id="PZxyCN3TeEhjCaqw32ue-376" value="n = 10" style="strokeWidth=1;html=1;shape=mxgraph.flowchart.decision;whiteSpace=wrap;rounded=1;strokeColor=default;" parent="WIyWlLk6GJQsqaUBKTNV-1" vertex="1">
          <mxGeometry x="380" y="785" width="70" height="70" as="geometry" />
        </mxCell>
        <mxCell id="PZxyCN3TeEhjCaqw32ue-392" style="edgeStyle=orthogonalEdgeStyle;rounded=0;orthogonalLoop=1;jettySize=auto;html=1;exitX=1;exitY=0.5;exitDx=0;exitDy=0;exitPerimeter=0;entryX=0.5;entryY=0;entryDx=0;entryDy=0;entryPerimeter=0;" parent="WIyWlLk6GJQsqaUBKTNV-1" source="PZxyCN3TeEhjCaqw32ue-387" target="PZxyCN3TeEhjCaqw32ue-389" edge="1">
          <mxGeometry relative="1" as="geometry">
            <Array as="points">
              <mxPoint x="435" y="900" />
            </Array>
          </mxGeometry>
        </mxCell>
        <mxCell id="PZxyCN3TeEhjCaqw32ue-433" value="Nein" style="edgeLabel;html=1;align=center;verticalAlign=middle;resizable=0;points=[];" parent="PZxyCN3TeEhjCaqw32ue-392" vertex="1" connectable="0">
          <mxGeometry x="-0.7116" y="1" relative="1" as="geometry">
            <mxPoint y="16" as="offset" />
          </mxGeometry>
        </mxCell>
        <mxCell id="PZxyCN3TeEhjCaqw32ue-393" style="edgeStyle=orthogonalEdgeStyle;rounded=0;orthogonalLoop=1;jettySize=auto;html=1;exitX=0;exitY=0.5;exitDx=0;exitDy=0;exitPerimeter=0;entryX=0.5;entryY=0;entryDx=0;entryDy=0;" parent="WIyWlLk6GJQsqaUBKTNV-1" source="PZxyCN3TeEhjCaqw32ue-387" target="PZxyCN3TeEhjCaqw32ue-394" edge="1">
          <mxGeometry relative="1" as="geometry">
            <mxPoint x="255" y="915" as="targetPoint" />
            <Array as="points">
              <mxPoint x="215" y="900" />
            </Array>
          </mxGeometry>
        </mxCell>
        <mxCell id="PZxyCN3TeEhjCaqw32ue-402" value="Ja" style="edgeLabel;html=1;align=center;verticalAlign=middle;resizable=0;points=[];" parent="PZxyCN3TeEhjCaqw32ue-393" vertex="1" connectable="0">
          <mxGeometry x="-0.5314" y="1" relative="1" as="geometry">
            <mxPoint x="6" y="14" as="offset" />
          </mxGeometry>
        </mxCell>
        <mxCell id="PZxyCN3TeEhjCaqw32ue-387" value="richtung = true" style="strokeWidth=1;html=1;shape=mxgraph.flowchart.decision;whiteSpace=wrap;rounded=1;strokeColor=default;" parent="WIyWlLk6GJQsqaUBKTNV-1" vertex="1">
          <mxGeometry x="310" y="865" width="70" height="70" as="geometry" />
        </mxCell>
        <mxCell id="PZxyCN3TeEhjCaqw32ue-397" style="edgeStyle=orthogonalEdgeStyle;rounded=0;orthogonalLoop=1;jettySize=auto;html=1;exitX=0;exitY=0.5;exitDx=0;exitDy=0;exitPerimeter=0;entryX=0.5;entryY=0;entryDx=0;entryDy=0;" parent="WIyWlLk6GJQsqaUBKTNV-1" source="PZxyCN3TeEhjCaqw32ue-389" target="PZxyCN3TeEhjCaqw32ue-396" edge="1">
          <mxGeometry relative="1" as="geometry" />
        </mxCell>
        <mxCell id="PZxyCN3TeEhjCaqw32ue-400" value="Ja" style="edgeLabel;html=1;align=center;verticalAlign=middle;resizable=0;points=[];" parent="PZxyCN3TeEhjCaqw32ue-397" vertex="1" connectable="0">
          <mxGeometry x="-0.68" y="1" relative="1" as="geometry">
            <mxPoint x="4" y="14" as="offset" />
          </mxGeometry>
        </mxCell>
        <mxCell id="PZxyCN3TeEhjCaqw32ue-427" style="edgeStyle=orthogonalEdgeStyle;rounded=0;orthogonalLoop=1;jettySize=auto;html=1;exitX=1;exitY=0.5;exitDx=0;exitDy=0;exitPerimeter=0;" parent="WIyWlLk6GJQsqaUBKTNV-1" source="PZxyCN3TeEhjCaqw32ue-389" target="PZxyCN3TeEhjCaqw32ue-424" edge="1">
          <mxGeometry relative="1" as="geometry">
            <Array as="points">
              <mxPoint x="500" y="950" />
              <mxPoint x="500" y="1030" />
              <mxPoint x="215" y="1030" />
            </Array>
          </mxGeometry>
        </mxCell>
        <mxCell id="PZxyCN3TeEhjCaqw32ue-432" value="Nein" style="edgeLabel;html=1;align=center;verticalAlign=middle;resizable=0;points=[];" parent="PZxyCN3TeEhjCaqw32ue-427" vertex="1" connectable="0">
          <mxGeometry x="-0.8733" y="-1" relative="1" as="geometry">
            <mxPoint x="-16" y="19" as="offset" />
          </mxGeometry>
        </mxCell>
        <mxCell id="PZxyCN3TeEhjCaqw32ue-389" value="richtung = false" style="strokeWidth=1;html=1;shape=mxgraph.flowchart.decision;whiteSpace=wrap;rounded=1;strokeColor=default;" parent="WIyWlLk6GJQsqaUBKTNV-1" vertex="1">
          <mxGeometry x="400" y="915" width="70" height="70" as="geometry" />
        </mxCell>
        <mxCell id="PZxyCN3TeEhjCaqw32ue-425" style="edgeStyle=orthogonalEdgeStyle;rounded=0;orthogonalLoop=1;jettySize=auto;html=1;exitX=0.5;exitY=1;exitDx=0;exitDy=0;entryX=0.5;entryY=0;entryDx=0;entryDy=0;entryPerimeter=0;" parent="WIyWlLk6GJQsqaUBKTNV-1" source="PZxyCN3TeEhjCaqw32ue-394" target="PZxyCN3TeEhjCaqw32ue-424" edge="1">
          <mxGeometry relative="1" as="geometry" />
        </mxCell>
        <mxCell id="PZxyCN3TeEhjCaqw32ue-394" value="r = i - (i : 2)" style="rounded=0;whiteSpace=wrap;html=1;absoluteArcSize=1;arcSize=14;strokeWidth=1;" parent="WIyWlLk6GJQsqaUBKTNV-1" vertex="1">
          <mxGeometry x="175" y="940" width="80" height="20" as="geometry" />
        </mxCell>
        <mxCell id="PZxyCN3TeEhjCaqw32ue-426" style="edgeStyle=orthogonalEdgeStyle;rounded=0;orthogonalLoop=1;jettySize=auto;html=1;exitX=0.5;exitY=1;exitDx=0;exitDy=0;" parent="WIyWlLk6GJQsqaUBKTNV-1" source="PZxyCN3TeEhjCaqw32ue-396" target="PZxyCN3TeEhjCaqw32ue-424" edge="1">
          <mxGeometry relative="1" as="geometry">
            <Array as="points">
              <mxPoint x="360" y="1030" />
              <mxPoint x="215" y="1030" />
            </Array>
          </mxGeometry>
        </mxCell>
        <mxCell id="PZxyCN3TeEhjCaqw32ue-396" value="r = i - (i : 2) * (-1)" style="rounded=0;whiteSpace=wrap;html=1;absoluteArcSize=1;arcSize=14;strokeWidth=1;" parent="WIyWlLk6GJQsqaUBKTNV-1" vertex="1">
          <mxGeometry x="310" y="995" width="100" height="20" as="geometry" />
        </mxCell>
        <mxCell id="PZxyCN3TeEhjCaqw32ue-398" value="End" style="strokeWidth=1;html=1;shape=mxgraph.flowchart.terminator;whiteSpace=wrap;rounded=1;" parent="WIyWlLk6GJQsqaUBKTNV-1" vertex="1">
          <mxGeometry x="330" y="1110" width="60" height="30" as="geometry" />
        </mxCell>
        <mxCell id="PZxyCN3TeEhjCaqw32ue-423" style="edgeStyle=orthogonalEdgeStyle;rounded=0;orthogonalLoop=1;jettySize=auto;html=1;exitX=1;exitY=0.5;exitDx=0;exitDy=0;exitPerimeter=0;" parent="WIyWlLk6GJQsqaUBKTNV-1" source="PZxyCN3TeEhjCaqw32ue-420" edge="1">
          <mxGeometry relative="1" as="geometry">
            <mxPoint x="360" y="140" as="targetPoint" />
          </mxGeometry>
        </mxCell>
        <mxCell id="PZxyCN3TeEhjCaqw32ue-420" value="1" style="strokeWidth=1;html=1;shape=mxgraph.flowchart.start_2;whiteSpace=wrap;rounded=0;" parent="WIyWlLk6GJQsqaUBKTNV-1" vertex="1">
          <mxGeometry x="200" y="80" width="40" height="40" as="geometry" />
        </mxCell>
        <mxCell id="PZxyCN3TeEhjCaqw32ue-424" value="1" style="strokeWidth=1;html=1;shape=mxgraph.flowchart.start_2;whiteSpace=wrap;rounded=0;" parent="WIyWlLk6GJQsqaUBKTNV-1" vertex="1">
          <mxGeometry x="195" y="1050" width="40" height="40" as="geometry" />
        </mxCell>
        <mxCell id="PZxyCN3TeEhjCaqw32ue-429" style="edgeStyle=orthogonalEdgeStyle;rounded=0;orthogonalLoop=1;jettySize=auto;html=1;exitX=0.5;exitY=1;exitDx=0;exitDy=0;exitPerimeter=0;entryX=0.5;entryY=0;entryDx=0;entryDy=0;entryPerimeter=0;" parent="WIyWlLk6GJQsqaUBKTNV-1" source="PZxyCN3TeEhjCaqw32ue-428" target="PZxyCN3TeEhjCaqw32ue-398" edge="1">
          <mxGeometry relative="1" as="geometry" />
        </mxCell>
        <mxCell id="PZxyCN3TeEhjCaqw32ue-428" value="2" style="strokeWidth=1;html=1;shape=mxgraph.flowchart.start_2;whiteSpace=wrap;rounded=0;" parent="WIyWlLk6GJQsqaUBKTNV-1" vertex="1">
          <mxGeometry x="340" y="1050" width="40" height="40" as="geometry" />
        </mxCell>
        <mxCell id="PZxyCN3TeEhjCaqw32ue-434" value="2" style="strokeWidth=1;html=1;shape=mxgraph.flowchart.start_2;whiteSpace=wrap;rounded=0;" parent="WIyWlLk6GJQsqaUBKTNV-1" vertex="1">
          <mxGeometry x="480" y="155" width="40" height="40" as="geometry" />
        </mxCell>
      </root>
    </mxGraphModel>
  </diagram>
</mxfile>
